<svg width="25" height="12" viewBox="0 0 25 12" fill="none" xmlns="http://www.w3.org/2000/svg">
<path d="M23.6618 1.76214C22.0114 0.880553 20.136 1.34885 18.8536 1.89689L15.0309 3.53057L8.45626 0.5L4.54087 0.654168L9.96998 5.69839L6.51 7.2047L2.9102 5.94913L0.5 6.97909L2.67816 9.45796C2.44803 9.70956 2.2395 10.0638 2.42882 10.4359C2.67608 10.9218 3.40691 11.1667 4.60569 11.1667C4.85152 11.1667 5.11706 11.1564 5.40207 11.1357C6.71799 11.0405 8.14467 10.7326 9.03675 10.3514L22.7016 4.51163C23.8818 4.0072 24.4697 3.47755 24.4989 2.8923C24.514 2.58876 24.3811 2.14618 23.6618 1.76214Z" fill="#0090BD"/>
</svg>
