<svg width="131" height="40" viewBox="0 0 131 40" fill="none" xmlns="http://www.w3.org/2000/svg">
<mask id="mask0_236_7239" style="mask-type:luminance" maskUnits="userSpaceOnUse" x="0" y="0" width="114" height="40">
<path d="M114 0H0V40H114V0Z" fill="white"/>
</mask>
<g mask="url(#mask0_236_7239)">
<path d="M34 26.262V23.405L21.25 16.262V8.4049C21.25 7.21921 20.245 4.8335 19 4.8335C17.755 4.8335 16.75 7.21921 16.75 8.4049V16.262L4 23.405V26.262L16.75 22.6907V30.5478L13 32.6907V34.8335L19 33.405L25 34.8335V32.6907L21.25 30.5478V22.6907L34 26.262Z" fill="#11397E"/>
<path d="M1 20.3335C1 10.3971 9.06356 2.3335 19 2.3335C28.9366 2.3335 37 10.397 37 20.3335C37 30.2701 28.9366 38.3335 19 38.3335C9.06355 38.3335 1 30.2701 1 20.3335Z" stroke="#11397E" stroke-width="2"/>
<path d="M50.7592 15.4404L53.8123 24.2978L53.2537 24.0537L54.4769 24.288L54.4094 25.167H50.3836L50.451 24.2685C50.7335 24.1383 51.0994 24.0276 51.5489 23.9365L51.3563 24.2002L48.7751 16.1044L48.3899 15.4892C48.7302 15.4567 49.1026 15.4372 49.5071 15.4306C49.9181 15.4176 50.3354 15.4209 50.7592 15.4404ZM49.7094 15.499L46.8778 24.2978L46.6562 24.0244L47.889 24.288L47.8216 25.167H44.7589L44.8263 24.3076C44.9483 24.236 45.1088 24.1709 45.3079 24.1123C45.5069 24.0472 45.7252 23.9886 45.9628 23.9365L45.356 24.2978L48.3899 15.4892L49.7094 15.499ZM46.7237 22.5791L47.0415 21.3682H51.6742L52.0016 22.5791H46.7237ZM56.6431 25.0205V15.6357H58.9546V25.0205H56.6431ZM55.7377 25.167L55.8052 24.3076C56.1134 24.1709 56.5147 24.0439 57.0091 23.9267L56.6431 24.9228V23.3896H58.9546V24.9228L58.6175 24.0048L59.8985 24.288L59.831 25.167H55.7377ZM59.8599 15.499L59.7925 16.3584C59.4843 16.4951 59.083 16.622 58.5886 16.7392L58.9546 15.7432V17.2764H56.6431V15.7432L56.9802 16.6611L55.6992 16.3779L55.7667 15.499H59.8599ZM68.0454 25.167L65.0889 21.2021L67.3906 20.5478L70.3184 24.2978L69.4518 24.0048L70.7425 24.249L70.6747 25.167H68.0454ZM65.3971 21.5732C64.7551 21.5732 64.068 21.5342 63.3361 21.456L63.4805 20.2842C64.206 20.3623 64.9027 20.4014 65.5705 20.4014C66.6173 20.4014 67.1407 19.7828 67.1407 18.5459C67.1407 17.361 66.643 16.7685 65.6475 16.7685H63.5287V15.499H65.7342C67.0053 15.499 67.9816 15.7432 68.6621 16.2314C69.3426 16.7132 69.6832 17.4098 69.6832 18.3212C69.6832 19.1156 69.4229 19.7698 68.9028 20.2842C68.3893 20.792 67.6476 21.1208 66.6778 21.2705L66.0716 21.5342C65.9686 21.5472 65.8594 21.557 65.7439 21.5634C65.6283 21.57 65.5127 21.5732 65.3971 21.5732ZM62.4981 25.0205V15.6357H64.8096V25.0205H62.4981ZM61.5928 25.167L61.6602 24.3076C61.9684 24.1709 62.3697 24.0439 62.8641 23.9267L62.4981 24.9228V23.3896H64.8096V24.9228L64.4918 24.0048L65.6765 24.288L65.609 25.167H61.5928ZM65.7149 15.499L65.6475 16.3584C65.3394 16.4951 64.938 16.622 64.4437 16.7392L64.8096 15.7432V17.2764H62.4981V15.7432L62.8352 16.6611L61.5542 16.3779L61.6217 15.499H65.7149ZM74.0069 25.2256L71.5025 16.3584L72.0515 16.6123L70.8286 16.3779L70.8956 15.499H74.9984L74.9313 16.3779C74.6743 16.4951 74.2699 16.6058 73.7176 16.71L73.9293 16.417L75.9426 24.4248L76.222 25.1767C75.9268 25.2093 75.5731 25.2288 75.1621 25.2353C74.7512 25.2484 74.3666 25.2451 74.0069 25.2256ZM76.222 25.1767L74.9984 25.0302L77.2812 15.8212L78.6008 15.831L76.222 25.1767ZM79.5831 25.2256L77.4357 16.4365L77.2812 15.8212C77.6021 15.7887 77.9492 15.7692 78.3214 15.7627C78.6942 15.7496 79.0597 15.7496 79.4194 15.7627L81.4997 24.415L81.7982 25.1767C81.503 25.2093 81.1499 25.2288 80.739 25.2353C80.328 25.2484 79.9427 25.2451 79.5831 25.2256ZM81.7982 25.1767L80.5562 25.0205L82.7805 16.3682L83.0409 16.6416L81.7022 16.3779L81.7693 15.499H84.8897L84.8227 16.3584C84.7004 16.4235 84.5399 16.4886 84.3407 16.5537C84.1481 16.6188 83.9298 16.6774 83.6859 16.7295L84.2737 16.3779L81.7982 25.1767ZM90.8414 15.4404L93.8948 24.2978L93.3359 24.0537L94.5588 24.288L94.4918 25.167H90.4659L90.533 24.2685C90.8157 24.1383 91.1819 24.0276 91.631 23.9365L91.4384 24.2002L88.857 16.1044L88.4718 15.4892C88.8123 15.4567 89.1845 15.4372 89.5895 15.4306C90.0004 15.4176 90.4173 15.4209 90.8414 15.4404ZM89.7913 15.499L86.9602 24.2978L86.7386 24.0244L87.9714 24.288L87.9037 25.167H84.8411L84.9088 24.3076C85.0304 24.236 85.1909 24.1709 85.3901 24.1123C85.5893 24.0472 85.8076 23.9886 86.0449 23.9365L85.4381 24.2978L88.4718 15.4892L89.7913 15.499ZM86.8057 22.5791L87.1239 21.3682H91.7566L92.084 22.5791H86.8057ZM97.7943 21.8076L95.0013 16.3682L95.5885 16.6123L94.3655 16.3779L94.4332 15.499H98.5551L98.488 16.3779C98.2309 16.4951 97.8266 16.6058 97.2743 16.71L97.4478 16.4658L99.7589 21.1338L100.086 21.7588L97.7943 21.8076ZM98.7286 21.749L101.339 16.3682L101.551 16.6416L100.202 16.3779L100.27 15.499H103.428L103.361 16.3584C103.239 16.4235 103.079 16.4886 102.879 16.5537C102.687 16.6188 102.468 16.6774 102.225 16.7295L102.87 16.3682L100.086 21.7588L98.7286 21.749ZM97.7845 25.0205V21.124H100.096V25.0205H97.7845ZM96.7253 25.167L96.793 24.3076C96.979 24.2295 97.1875 24.1611 97.4189 24.1025C97.6563 24.0439 97.9002 23.9951 98.1507 23.956L97.7845 24.9228V23.3896H100.096V24.9228L99.7589 24.0146L101.194 24.288L101.127 25.167H96.7253ZM107.762 25.3232C106.49 25.3232 105.457 25.0302 104.661 24.4443C104.5 23.3831 104.461 22.4814 104.545 21.7392H105.537L106.674 24.1904L105.845 23.5361C106.539 23.9332 107.252 24.1318 107.984 24.1318C108.485 24.1318 108.87 24.0309 109.139 23.8291C109.409 23.6272 109.544 23.3408 109.544 22.9697C109.544 22.6572 109.438 22.4 109.226 22.1982C109.014 21.9899 108.671 21.8108 108.195 21.6611L107.078 21.3096C105.396 20.7822 104.555 19.8122 104.555 18.3994C104.555 17.4684 104.885 16.7262 105.547 16.1728C106.208 15.6194 107.097 15.3428 108.214 15.3428C109.235 15.3428 110.16 15.5576 110.988 15.9873C111.116 16.8727 111.155 17.6767 111.104 18.3994H110.074L109.13 16.4072L110.131 17.1298C109.38 16.7327 108.667 16.5342 107.993 16.5342C107.088 16.5342 106.635 16.8955 106.635 17.6182C106.635 17.9372 106.747 18.2041 106.972 18.4189C107.203 18.6338 107.573 18.8226 108.08 18.9853L109.197 19.3369C110.841 19.8577 111.663 20.805 111.663 22.1787C111.663 23.1422 111.309 23.9072 110.603 24.4736C109.903 25.04 108.956 25.3232 107.762 25.3232Z" fill="#11397E"/>
</g>
</svg>
