<svg width="16" height="16" viewBox="0 0 16 16" fill="none" xmlns="http://www.w3.org/2000/svg">
<path fill-rule="evenodd" clip-rule="evenodd" d="M0.270011 3.46792C0.200316 3.53757 0.145029 3.62027 0.107307 3.7113C0.0695863 3.80232 0.0501709 3.89989 0.0501709 3.99842C0.0501709 4.09695 0.0695863 4.19452 0.107307 4.28554C0.145029 4.37657 0.200316 4.45927 0.270011 4.52892L3.47001 7.72892C3.53916 7.80058 3.62189 7.85776 3.71338 7.89711C3.80486 7.93646 3.90327 7.95719 4.00285 7.9581C4.10243 7.95902 4.2012 7.94009 4.29339 7.90242C4.38558 7.86475 4.46935 7.8091 4.5398 7.73872C4.61025 7.66833 4.66598 7.58462 4.70373 7.49246C4.74149 7.40031 4.76051 7.30156 4.75969 7.20197C4.75888 7.10239 4.73823 7.00397 4.69897 6.91245C4.65971 6.82092 4.60261 6.73814 4.53101 6.66892L2.61101 4.74892H12.001C12.1999 4.74892 12.3907 4.6699 12.5313 4.52925C12.672 4.3886 12.751 4.19783 12.751 3.99892C12.751 3.80001 12.672 3.60924 12.5313 3.46859C12.3907 3.32794 12.1999 3.24892 12.001 3.24892H2.61001L4.53001 1.32892C4.66249 1.18674 4.73461 0.998698 4.73119 0.804397C4.72776 0.610096 4.64905 0.42471 4.51163 0.287297C4.37422 0.149884 4.18883 0.071172 3.99453 0.0677438C3.80023 0.0643156 3.61219 0.136439 3.47001 0.268919L0.270011 3.46792ZM12.53 8.26792L15.73 11.4679C15.7997 11.5376 15.855 11.6203 15.8927 11.7113C15.9304 11.8023 15.9499 11.8999 15.9499 11.9984C15.9499 12.097 15.9304 12.1945 15.8927 12.2855C15.855 12.3766 15.7997 12.4593 15.73 12.5289L12.53 15.7289C12.4609 15.8006 12.3781 15.8578 12.2866 15.8971C12.1952 15.9365 12.0968 15.9572 11.9972 15.9581C11.8976 15.959 11.7988 15.9401 11.7066 15.9024C11.6144 15.8648 11.5307 15.8091 11.4602 15.7387C11.3898 15.6683 11.334 15.5846 11.2963 15.4925C11.2585 15.4003 11.2395 15.3016 11.2403 15.202C11.2411 15.1024 11.2618 15.004 11.3011 14.9124C11.3403 14.8209 11.3974 14.7381 11.469 14.6689L13.389 12.7489H3.99901C3.8001 12.7489 3.60933 12.6699 3.46868 12.5292C3.32803 12.3886 3.24901 12.1978 3.24901 11.9989C3.24901 11.8 3.32803 11.6092 3.46868 11.4686C3.60933 11.3279 3.8001 11.2489 3.99901 11.2489H13.389L11.469 9.32892C11.3365 9.18674 11.2644 8.9987 11.2678 8.8044C11.2713 8.6101 11.35 8.42471 11.4874 8.2873C11.6248 8.14988 11.8102 8.07117 12.0045 8.06774C12.1988 8.06432 12.3868 8.13644 12.529 8.26892L12.53 8.26792Z" fill="#74767A"/>
</svg>
