<svg width="32" height="22" viewBox="0 0 32 22" fill="none" xmlns="http://www.w3.org/2000/svg">
<path d="M19.2982 5.23462H12.6843V16.7655H19.2982V5.23462Z" fill="#FF5F00"/>
<path d="M13.1043 11.0001C13.1032 9.88956 13.3626 8.79337 13.8628 7.7945C14.363 6.79562 15.0908 5.92024 15.9913 5.23462C14.8762 4.38428 13.537 3.85547 12.1268 3.70863C10.7166 3.56179 9.2923 3.80283 8.01664 4.40421C6.74097 5.0056 5.66544 5.94306 4.91297 7.10944C4.16051 8.27582 3.76147 9.62406 3.76147 11.0001C3.76147 12.3761 4.16051 13.7243 4.91297 14.8907C5.66544 16.0571 6.74097 16.9945 8.01664 17.5959C9.2923 18.1973 10.7166 18.4384 12.1268 18.2915C13.537 18.1447 14.8762 17.6159 15.9913 16.7655C15.0908 16.0799 14.363 15.2045 13.8628 14.2056C13.3626 13.2068 13.1032 12.1106 13.1043 11.0001Z" fill="#EB001B"/>
<path d="M28.2207 11.0001C28.2207 12.3761 27.8217 13.7243 27.0693 14.8907C26.3169 16.0571 25.2414 16.9945 23.9657 17.5959C22.6901 18.1973 21.2658 18.4384 19.8556 18.2915C18.4454 18.1447 17.1063 17.6159 15.9913 16.7655C16.8909 16.0792 17.6182 15.2037 18.1183 14.205C18.6184 13.2062 18.8782 12.1104 18.8782 11.0001C18.8782 9.88973 18.6184 8.79389 18.1183 7.79517C17.6182 6.79645 16.8909 5.92093 15.9913 5.23461C17.1063 4.38428 18.4454 3.85547 19.8556 3.70863C21.2658 3.56179 22.6901 3.80284 23.9657 4.40423C25.2414 5.00562 26.3169 5.94308 27.0693 7.10946C27.8217 8.27585 28.2207 9.62408 28.2207 11.0001Z" fill="#F79E1B"/>
<path d="M27.4995 15.5442V15.3081H27.5976V15.26H27.3477V15.3081H27.4459V15.5442H27.4995ZM27.9846 15.5442V15.2595H27.908L27.8199 15.4553L27.7318 15.2595H27.6551V15.5442H27.7092V15.3295L27.7919 15.5146H27.8479L27.9306 15.329V15.5442H27.9846Z" fill="#F79E1B"/>
</svg>
