<svg width="28" height="28" viewBox="0 0 28 28" fill="none" xmlns="http://www.w3.org/2000/svg">
<path d="M12.667 7.33341H15.3337V10.0001H12.667V7.33341ZM12.667 12.6667H15.3337V20.6667H12.667V12.6667ZM14.0003 0.666748C6.64033 0.666748 0.666992 6.64008 0.666992 14.0001C0.666992 21.3601 6.64033 27.3334 14.0003 27.3334C21.3603 27.3334 27.3337 21.3601 27.3337 14.0001C27.3337 6.64008 21.3603 0.666748 14.0003 0.666748ZM14.0003 24.6667C8.12033 24.6667 3.33366 19.8801 3.33366 14.0001C3.33366 8.12008 8.12033 3.33341 14.0003 3.33341C19.8803 3.33341 24.667 8.12008 24.667 14.0001C24.667 19.8801 19.8803 24.6667 14.0003 24.6667Z" fill="currentColor"/>
</svg>
