<?xml version="1.0" encoding="UTF-8" standalone="no"?><svg xmlns="http://www.w3.org/2000/svg" xmlns:xlink="http://www.w3.org/1999/xlink"><symbol id="icon-checkmark" width="13" height="9" viewBox="0 0 13 9" xmlns="http://www.w3.org/2000/svg"><path d="M4.75 9L0.75 5.17021L2.15 3.82979L4.75 6.31915L11.35 0L12.75 1.34043L4.75 9Z"></path></symbol><symbol id="icon-arrow-down" width="14" height="7" viewBox="0 0 14 7" xmlns="http://www.w3.org/2000/svg"><path d="M0.333252 0L6.99992 6.66667L13.6666 0H0.333252Z"></path></symbol><symbol id="icon-cart" width="24" height="19" viewBox="0 0 24 19" xmlns="http://www.w3.org/2000/svg"><path d="M5.00002 19C4.71669 19 4.45836 18.9125 4.22502 18.7375C3.99169 18.5625 3.83336 18.3333 3.75002 18.05L0.950025 7.95C0.866691 7.71667 0.904191 7.5 1.06252 7.3C1.22086 7.1 1.43336 7 1.70002 7H6.75002L11.15 0.45C11.2334 0.316667 11.35 0.208333 11.5 0.125C11.65 0.0416667 11.8084 0 11.975 0C12.1417 0 12.3 0.0416667 12.45 0.125C12.6 0.208333 12.7167 0.316667 12.8 0.45L17.2 7H22.3C22.5667 7 22.7792 7.1 22.9375 7.3C23.0959 7.5 23.1334 7.71667 23.05 7.95L20.25 18.05C20.1667 18.3333 20.0084 18.5625 19.775 18.7375C19.5417 18.9125 19.2834 19 19 19H5.00002ZM5.50002 17H18.5L20.7 9H3.30002L5.50002 17ZM9.17502 7H14.8L11.975 2.8L9.17502 7Z"></path></symbol><symbol id="icon-exclamation-red" width="28" height="28" viewBox="0 0 28 28" xmlns="http://www.w3.org/2000/svg"><path fill-rule="evenodd" clip-rule="evenodd" d="M14.0003 0.666748C6.64033 0.666748 0.666992 6.64008 0.666992 14.0001C0.666992 21.3601 6.64033 27.3334 14.0003 27.3334C21.3603 27.3334 27.3337 21.3601 27.3337 14.0001C27.3337 6.64008 21.3603 0.666748 14.0003 0.666748ZM12.667 20.6667V18.0001H15.3337V20.6667H12.667ZM12.667 7.33341V15.3334H15.3337V7.33341H12.667Z"></path></symbol><symbol id="icon-calendar" width="24" height="28" viewBox="0 0 24 28" xmlns="http://www.w3.org/2000/svg"><path fill-rule="evenodd" clip-rule="evenodd" d="M21.3333 3.33341H20V0.666748H17.3333V3.33341H6.66667V0.666748H4V3.33341H2.66667C1.18667 3.33341 0 4.53341 0 6.00008V24.6667C0 26.1334 1.18667 27.3334 2.66667 27.3334H21.3333C22.8 27.3334 24 26.1334 24 24.6667V6.00008C24 4.53341 22.8 3.33341 21.3333 3.33341ZM21.3333 24.6667H2.66667V10.0001H21.3333V24.6667ZM4.66667 15.3334C4.66667 13.4934 6.16 12.0001 8 12.0001C9.84 12.0001 11.3333 13.4934 11.3333 15.3334C11.3333 17.1734 9.84 18.6667 8 18.6667C6.16 18.6667 4.66667 17.1734 4.66667 15.3334Z"></path></symbol><symbol id="icon-close" width="14" height="14" viewBox="0 0 14 14" xmlns="http://www.w3.org/2000/svg"><path d="M14 1.41L12.59 0L7 5.59L1.41 0L0 1.41L5.59 7L0 12.59L1.41 14L7 8.41L12.59 14L14 12.59L8.41 7L14 1.41Z"></path></symbol><symbol id="icon-facebook" width="19" height="19" viewBox="0 0 19 19" xmlns="http://www.w3.org/2000/svg"><path d="M18.5 9.36843C18.5 4.36797 14.4703 0.313721 9.5 0.313721C4.52975 0.313721 0.5 4.36797 0.5 9.36843C0.5 13.8882 3.791 17.6339 8.09375 18.313V11.986H5.8085V9.36767H8.09375V7.37413C8.09375 5.10517 9.43775 3.85109 11.4935 3.85109C12.4775 3.85109 13.508 4.02841 13.508 4.02841V6.25663H12.3725C11.2542 6.25663 10.9055 6.95459 10.9055 7.67067V9.36843H13.4015L13.0025 11.9867H10.9055V18.3137C15.209 17.6339 18.5 13.8875 18.5 9.36843Z"></path></symbol><symbol id="icon-google" width="18" height="19" viewBox="0 0 18 19" xmlns="http://www.w3.org/2000/svg"><path d="M17.8249 7.55102H17.1V7.51367H9V11.1136H14.0864C13.3443 13.2093 11.3503 14.7136 9 14.7136C6.01785 14.7136 3.6 12.2958 3.6 9.31366C3.6 6.33153 6.01785 3.9137 9 3.9137C10.3765 3.9137 11.6289 4.43299 12.5824 5.28124L15.1281 2.7356C13.5207 1.23756 11.3706 0.313721 9 0.313721C4.02975 0.313721 0 4.34344 0 9.31366C0 14.2839 4.02975 18.3136 9 18.3136C13.9703 18.3136 18 14.2839 18 9.31366C18 8.71021 17.9379 8.12117 17.8249 7.55102Z"></path><path d="M1.0376 5.12464L3.99455 7.29317C4.79465 5.31229 6.73235 3.9137 8.9999 3.9137C10.3764 3.9137 11.6288 4.43299 12.5823 5.28124L15.128 2.7356C13.5206 1.23756 11.3705 0.313721 8.9999 0.313721C5.543 0.313721 2.5451 2.26536 1.0376 5.12464Z"></path><path d="M8.99956 18.3138C11.3243 18.3138 13.4366 17.4242 15.0336 15.9774L12.2481 13.6204C11.3445 14.3048 10.2213 14.7139 8.99956 14.7139C6.65866 14.7139 4.671 13.2212 3.9222 11.1382L0.987305 13.3994C2.4768 16.314 5.50171 18.3138 8.99956 18.3138Z"></path><path d="M17.825 7.55127H17.1V7.51392H9V11.1139H14.0864C13.73 12.1205 13.0824 12.9886 12.2472 13.6208C12.2476 13.6204 12.2481 13.6204 12.2485 13.6199L15.034 15.977C14.8369 16.1561 18 13.8139 18 9.3139C18 8.71046 17.9379 8.12141 17.825 7.55127Z"></path></symbol><symbol id="icon-info" width="28" height="28" viewBox="0 0 28 28" xmlns="http://www.w3.org/2000/svg"><path d="M12.667 7.33341H15.3337V10.0001H12.667V7.33341ZM12.667 12.6667H15.3337V20.6667H12.667V12.6667ZM14.0003 0.666748C6.64033 0.666748 0.666992 6.64008 0.666992 14.0001C0.666992 21.3601 6.64033 27.3334 14.0003 27.3334C21.3603 27.3334 27.3337 21.3601 27.3337 14.0001C27.3337 6.64008 21.3603 0.666748 14.0003 0.666748ZM14.0003 24.6667C8.12033 24.6667 3.33366 19.8801 3.33366 14.0001C3.33366 8.12008 8.12033 3.33341 14.0003 3.33341C19.8803 3.33341 24.667 8.12008 24.667 14.0001C24.667 19.8801 19.8803 24.6667 14.0003 24.6667Z"></path></symbol><symbol id="icon-minus" width="10" height="10" viewBox="0 0 10 10" xmlns="http://www.w3.org/2000/svg"><g clip-path="url(#clip0_1536_7177)"><path d="M0 4.30005V5.70005H10V4.30005H0Z"></path></g><defs><clipPath><rect width="10" height="10"></rect></clipPath></defs></symbol><symbol id="icon-payment-american-express" width="32" height="22" viewBox="0 0 32 22" xmlns="http://www.w3.org/2000/svg"><g clip-path="url(#clip0_1247_715)"><path fill-rule="evenodd" clip-rule="evenodd" d="M19.671 12.756C19.88 12.882 20.015 13.058 20.015 13.378L20.017 13.379C20.017 13.829 19.717 14.054 19.537 14.126L19.517 14.134C19.667 14.188 19.787 14.288 19.847 14.368C19.938 14.508 19.953 14.634 19.955 14.884V15.439H19.295V15.089C19.295 15.0717 19.2952 15.0536 19.2953 15.0349C19.2968 14.8694 19.2988 14.6558 19.191 14.539C19.103 14.438 18.953 14.414 18.713 14.414H17.993V15.441H17.318V12.621H18.861C19.207 12.621 19.461 12.636 19.671 12.756ZM19.117 13.783L19.145 13.785L19.147 13.786C19.236 13.731 19.281 13.636 19.281 13.516C19.287 13.408 19.229 13.309 19.131 13.261C19.041 13.211 18.921 13.211 18.801 13.211H17.977V13.841H18.787C18.922 13.841 19.027 13.836 19.117 13.783ZM23 14.837H24.297C24.424 14.837 24.514 14.82 24.574 14.767C24.619 14.737 24.654 14.664 24.654 14.587C24.654 14.513 24.618 14.437 24.572 14.407C24.527 14.362 24.451 14.347 24.347 14.347C24.3083 14.3461 24.2691 14.3454 24.2296 14.3447C23.6238 14.334 22.94 14.3219 22.94 13.477C22.94 13.074 23.194 12.637 23.898 12.637H25.248V13.239H24.018C23.923 13.233 23.829 13.253 23.746 13.299C23.673 13.343 23.656 13.419 23.656 13.509C23.656 13.614 23.716 13.689 23.806 13.719C23.881 13.749 23.957 13.749 24.061 13.749L24.437 13.764C24.775 13.778 25.014 13.838 25.167 13.971C25.288 14.105 25.354 14.273 25.354 14.553C25.354 15.159 24.98 15.437 24.304 15.437H23V14.837ZM25.1579 13.9576C25.1589 13.9591 25.1599 13.9607 25.1609 13.9623C25.1628 13.9656 25.1648 13.9688 25.167 13.971C25.1718 13.9758 25.1773 13.9783 25.1826 13.9807C25.1852 13.9819 25.1877 13.983 25.1901 13.9844L25.198 13.991C25.1957 13.9881 25.193 13.9861 25.1901 13.9844L25.1579 13.9576ZM25.1579 13.9576C25.1573 13.9567 25.1566 13.9558 25.156 13.955V13.956L25.1579 13.9576ZM27.828 12.084H27.832V12.082H27.893V12.637H27.829V12.636H27.828V12.084ZM27.828 12.636H26.546C25.856 12.636 25.586 13.073 25.586 13.476C25.586 14.3208 26.2732 14.333 26.8786 14.3437C26.9181 14.3444 26.9574 14.3451 26.996 14.346C27.1 14.346 27.176 14.361 27.22 14.406C27.266 14.436 27.296 14.512 27.296 14.586C27.296 14.656 27.262 14.724 27.206 14.766C27.161 14.822 27.07 14.836 26.936 14.836H25.648V15.441H26.935C27.355 15.441 27.669 15.323 27.835 15.081H27.865C27.955 14.947 28 14.781 28 14.558C28 14.318 27.955 14.168 27.865 14.032V14.03V14.025C27.8511 14.0134 27.8402 14.0023 27.8297 13.9915C27.8174 13.9789 27.8056 13.9668 27.79 13.955C27.64 13.802 27.4 13.74 27.026 13.73L26.666 13.718C26.546 13.718 26.472 13.711 26.396 13.688C26.306 13.658 26.246 13.583 26.246 13.478C26.246 13.388 26.276 13.318 26.336 13.274C26.412 13.229 26.486 13.224 26.606 13.224H27.829V12.637H27.828V12.636ZM22.597 12.625V13.208L21.028 13.209V13.719H22.56V14.303H21.027V14.873H22.597V15.458H20.362V12.625H22.597ZM18.195 7.787H17.51L17.511 10.6H18.195V7.787ZM17.119 8.549L17.126 8.543L17.127 8.542C17.127 8.992 16.827 9.222 16.655 9.292C16.783 9.339 16.895 9.422 16.985 9.529C17.079 9.67 17.095 9.795 17.095 10.045V10.598H16.418V10.244C16.418 10.2277 16.4181 10.2108 16.4183 10.1933C16.4196 10.0286 16.4213 9.81898 16.311 9.696C16.214 9.606 16.064 9.576 15.824 9.576H15.104V10.61H14.43V7.79H15.969C16.309 7.79 16.562 7.8 16.779 7.925C16.989 8.049 17.119 8.235 17.119 8.549ZM16.256 8.939H16.271V8.938C16.358 8.892 16.405 8.794 16.405 8.672C16.405 8.55 16.345 8.462 16.255 8.422C16.165 8.376 16.045 8.372 15.925 8.372H15.1V8.995H15.926C16.061 8.995 16.166 8.993 16.256 8.939ZM20.552 8.373H19.92H19.919C19.675 8.373 19.536 8.403 19.403 8.538C19.289 8.658 19.209 8.883 19.209 9.168C19.209 9.47 19.27 9.68 19.395 9.83C19.501 9.934 19.686 9.964 19.863 9.964H20.163L21.106 7.744H22.11L23.243 10.4V7.789H24.263L25.443 9.749V7.786H26.127V10.599L26.125 10.597H25.175L23.903 8.487V10.597H22.543L22.281 9.97H20.891L20.636 10.597H19.856C19.531 10.597 19.118 10.525 18.886 10.287C18.649 10.046 18.526 9.725 18.526 9.213C18.526 8.793 18.602 8.403 18.888 8.103C19.104 7.878 19.444 7.773 19.908 7.773H20.552V8.373ZM22.052 9.383L21.588 8.265L21.122 9.385H22.052V9.383ZM6.634 10.598L6.38 9.97L4.99 9.971L4.73 10.597H4.01L5.208 7.787H6.205L7.343 10.45V7.787H8.435L9.311 9.692L10.118 7.788H11.234V10.598H10.544L10.529 8.396L9.556 10.598H8.972L8 8.393V10.598H6.634ZM6.152 9.383L5.692 8.265H5.691L5.234 9.385H6.149L6.152 9.383ZM13.714 12.62H15.856L15.855 12.621C16.385 12.621 16.983 12.771 16.983 13.551L16.989 13.554C16.989 14.335 16.419 14.499 15.819 14.499H14.981V15.439H13.679L12.855 14.509L12 15.441H9.346V12.621H12.039L12.864 13.543L13.714 12.62ZM11.67 14.853L11.656 14.851H10.02V14.294H11.49V13.72H10.02V13.21H11.7L12.433 14.03L11.67 14.853ZM13.282 14.036L14.312 15.183V15.181V12.928L13.282 14.036ZM14.98 13.925H15.865V13.924C16.135 13.924 16.285 13.795 16.285 13.552C16.285 13.306 16.105 13.208 15.865 13.208H14.98V13.925ZM13.967 7.787V8.373H12.4V8.88H13.927V9.456H12.4V10.02H13.967V10.6H11.73V7.787H13.967Z"></path></g><defs><clipPath><rect width="32" height="22"></rect></clipPath></defs></symbol><symbol id="icon-payment-amazon-pay" width="32" height="22" viewBox="0 0 32 22" xmlns="http://www.w3.org/2000/svg"><path d="M18.3781 4.46426C18.0049 4.14328 17.4251 3.98254 16.638 3.98254C16.2485 3.98254 15.859 4.01785 15.4696 4.08738C15.0795 4.1576 14.7524 4.25011 14.4872 4.36559C14.3879 4.40717 14.3212 4.45004 14.2881 4.4953C14.255 4.54065 14.2381 4.62132 14.2381 4.73621V5.06963C14.2381 5.21793 14.2918 5.29243 14.3998 5.29243C14.436 5.29193 14.4718 5.28565 14.5059 5.27383C14.5433 5.2614 14.5746 5.25145 14.5989 5.2428C15.2374 5.05341 15.8459 4.95842 16.4264 4.95842C16.9232 4.95842 17.2715 5.04914 17.4706 5.23096C17.6697 5.41229 17.769 5.72522 17.769 6.17034V6.98608C17.1891 6.84583 16.6667 6.7762 16.2023 6.7762C15.4733 6.7762 14.8935 6.95564 14.4623 7.31392C14.0315 7.67211 13.8156 8.15264 13.8156 8.75422C13.8156 9.31542 13.9897 9.76183 14.338 10.0958C14.6857 10.4299 15.1581 10.5962 15.7548 10.5962C16.1112 10.5962 16.4695 10.526 16.8302 10.3864C17.191 10.2467 17.5199 10.048 17.8182 9.79287L17.8807 10.2007C17.9057 10.3572 17.9967 10.4354 18.1547 10.4354H18.689C18.8544 10.4354 18.938 10.3529 18.938 10.1884V5.96046C18.9374 5.28438 18.7508 4.78584 18.3781 4.46426ZM17.769 9.03979C17.4956 9.24589 17.2097 9.40236 16.9114 9.50978C16.613 9.61721 16.3272 9.67062 16.0538 9.67062C15.7305 9.67062 15.4821 9.58607 15.3079 9.41728C15.1338 9.24838 15.047 9.00747 15.047 8.69404C15.047 7.97688 15.5152 7.6181 16.4514 7.6181C16.6667 7.6181 16.8883 7.63302 17.1161 7.66157C17.3439 7.69071 17.5617 7.7299 17.769 7.77894V9.03979ZM12.7726 5.86428C12.6522 5.46441 12.4806 5.12423 12.2565 4.84423C12.033 4.56423 11.7596 4.34938 11.4363 4.20107C11.1136 4.05266 10.7529 3.97876 10.3547 3.97876C9.98201 3.97876 9.61691 4.04839 9.26111 4.18864C8.90481 4.32889 8.56901 4.53508 8.25381 4.80693L8.19201 4.41085C8.16701 4.24633 8.07151 4.16377 7.90551 4.16377H7.35871C7.19331 4.16377 7.11031 4.24633 7.11031 4.41085V12.7325C7.11031 12.8977 7.19331 12.9796 7.35871 12.9796H8.09211C8.25811 12.9796 8.34051 12.8971 8.34051 12.7325V9.83942C8.87921 10.3255 9.52151 10.5689 10.2673 10.5689C10.673 10.5689 11.0419 10.4882 11.3733 10.328C11.7047 10.1673 11.9862 9.94247 12.2183 9.65381C12.4506 9.36575 12.6309 9.01562 12.7589 8.60273C12.8875 8.19054 12.9518 7.72861 12.9518 7.21764C12.953 6.71533 12.8925 6.26404 12.7726 5.86428ZM9.98201 9.57931C9.41781 9.57931 8.87102 9.38187 8.34111 8.98578V5.53643C8.86292 5.15716 9.41842 4.96777 10.0071 4.96777C11.1342 4.96777 11.6978 5.73885 11.6978 7.27971C11.6972 8.81321 11.1255 9.57931 9.98201 9.57931ZM22.9825 11.5319L25.7175 4.6077C25.775 4.46745 25.8043 4.36867 25.8043 4.31088C25.8043 4.21221 25.7463 4.16258 25.6302 4.16258H24.9342C24.8013 4.16258 24.7108 4.18366 24.6602 4.22464C24.6103 4.26622 24.561 4.35694 24.5111 4.49719L22.8327 9.29433L21.0926 4.49719C21.0426 4.35694 20.9933 4.26622 20.9434 4.22464C20.8934 4.18366 20.8024 4.16258 20.6694 4.16258H19.9235C19.8075 4.16258 19.7494 4.21221 19.7494 4.31088C19.7494 4.36858 19.7781 4.46735 19.8362 4.6077L22.2354 10.4932L21.9994 11.124C21.8584 11.52 21.7011 11.792 21.527 11.9404C21.3529 12.0887 21.1082 12.1626 20.7936 12.1626C20.6526 12.1626 20.5408 12.1539 20.4584 12.1377C20.3754 12.1216 20.313 12.1129 20.2718 12.1129C20.1476 12.1129 20.0852 12.1911 20.0852 12.3476V12.6692C20.0852 12.7847 20.1058 12.8691 20.1476 12.9225C20.1888 12.9758 20.255 13.0156 20.3467 13.0399C20.5533 13.097 20.7899 13.1267 21.0551 13.1267C21.5276 13.1267 21.9108 13.0032 22.2048 12.7555C22.5 12.509 22.7591 12.1005 22.9825 11.5319ZM25.6938 15.9316C23.0662 17.8606 19.2569 18.8862 15.9764 18.8862C11.3789 18.8862 7.23891 17.1957 4.10631 14.382C3.86031 14.1611 4.07941 13.8593 4.37531 14.0307C7.75511 15.9869 11.935 17.1652 16.2523 17.1652C19.1646 17.1652 22.3659 16.5643 25.3119 15.3214C25.7556 15.1333 26.1281 15.6119 25.6938 15.9316ZM26.7867 14.69C27.1231 15.1184 26.4129 16.8823 26.0957 17.67C25.9997 17.9084 26.2057 18.0047 26.4228 17.824C27.8322 16.6513 28.1967 14.1934 27.9083 13.8382C27.6218 13.4862 25.1577 13.1832 23.6535 14.2337C23.4219 14.3952 23.4619 14.6187 23.7184 14.5875C24.5654 14.4871 26.4509 14.2617 26.7867 14.69Z"></path></symbol><symbol id="icon-payment-mastercard" width="32" height="22" viewBox="0 0 32 22" xmlns="http://www.w3.org/2000/svg"><path d="M19.2982 5.23462H12.6843V16.7655H19.2982V5.23462Z"></path><path d="M13.1043 11.0001C13.1032 9.88956 13.3626 8.79337 13.8628 7.7945C14.363 6.79562 15.0908 5.92024 15.9913 5.23462C14.8762 4.38428 13.537 3.85547 12.1268 3.70863C10.7166 3.56179 9.2923 3.80283 8.01664 4.40421C6.74097 5.0056 5.66544 5.94306 4.91297 7.10944C4.16051 8.27582 3.76147 9.62406 3.76147 11.0001C3.76147 12.3761 4.16051 13.7243 4.91297 14.8907C5.66544 16.0571 6.74097 16.9945 8.01664 17.5959C9.2923 18.1973 10.7166 18.4384 12.1268 18.2915C13.537 18.1447 14.8762 17.6159 15.9913 16.7655C15.0908 16.0799 14.363 15.2045 13.8628 14.2056C13.3626 13.2068 13.1032 12.1106 13.1043 11.0001Z"></path><path d="M28.2207 11.0001C28.2207 12.3761 27.8217 13.7243 27.0693 14.8907C26.3169 16.0571 25.2414 16.9945 23.9657 17.5959C22.6901 18.1973 21.2658 18.4384 19.8556 18.2915C18.4454 18.1447 17.1063 17.6159 15.9913 16.7655C16.8909 16.0792 17.6182 15.2037 18.1183 14.205C18.6184 13.2062 18.8782 12.1104 18.8782 11.0001C18.8782 9.88973 18.6184 8.79389 18.1183 7.79517C17.6182 6.79645 16.8909 5.92093 15.9913 5.23461C17.1063 4.38428 18.4454 3.85547 19.8556 3.70863C21.2658 3.56179 22.6901 3.80284 23.9657 4.40423C25.2414 5.00562 26.3169 5.94308 27.0693 7.10946C27.8217 8.27585 28.2207 9.62408 28.2207 11.0001Z"></path><path d="M27.4995 15.5442V15.3081H27.5976V15.26H27.3477V15.3081H27.4459V15.5442H27.4995ZM27.9846 15.5442V15.2595H27.908L27.8199 15.4553L27.7318 15.2595H27.6551V15.5442H27.7092V15.3295L27.7919 15.5146H27.8479L27.9306 15.329V15.5442H27.9846Z"></path></symbol><symbol id="icon-payment-visa" width="32" height="22" viewBox="0 0 32 22" xmlns="http://www.w3.org/2000/svg"><path d="M13.112 7.138L9.97 14.634H7.92L6.374 8.651C6.28 8.283 6.199 8.148 5.913 7.993C5.447 7.74 4.677 7.503 4 7.355L4.046 7.138H7.346C7.56165 7.13778 7.77027 7.21466 7.93421 7.35476C8.09815 7.49486 8.2066 7.68895 8.24 7.902L9.057 12.24L11.075 7.138H13.112ZM21.145 12.187C21.153 10.208 18.409 10.099 18.428 9.215C18.434 8.946 18.69 8.66 19.25 8.587C19.9063 8.52467 20.5672 8.64076 21.163 8.923L21.503 7.333C20.923 7.11495 20.3087 7.00218 19.689 7C17.772 7 16.423 8.02 16.411 9.479C16.399 10.558 17.374 11.159 18.109 11.519C18.865 11.886 19.119 12.122 19.115 12.45C19.11 12.954 18.513 13.175 17.955 13.184C16.98 13.199 16.415 12.921 15.963 12.711L15.612 14.353C16.065 14.561 16.901 14.743 17.768 14.751C19.805 14.751 21.138 13.745 21.145 12.187ZM26.206 14.634H28L26.435 7.138H24.779C24.6021 7.13636 24.4287 7.18792 24.2814 7.28599C24.1341 7.38406 24.0197 7.52412 23.953 7.688L21.044 14.634H23.08L23.485 13.514H25.973L26.206 14.634ZM24.043 11.978L25.063 9.163L25.651 11.978H24.043ZM15.883 7.138L14.28 14.634H12.34L13.945 7.138H15.883Z"></path></symbol><symbol id="icon-plus" width="10" height="10" viewBox="0 0 10 10" xmlns="http://www.w3.org/2000/svg"><g clip-path="url(#clip0_1536_7180)"><path fill-rule="evenodd" clip-rule="evenodd" d="M10 5.71429H5.71429V10H4.28571V5.71429H0V4.28571H4.28571V0H5.71429V4.28571H10V5.71429Z"></path></g><defs><clipPath><rect width="10" height="10"></rect></clipPath></defs></symbol><symbol id="icon-switch" width="16" height="16" viewBox="0 0 16 16" xmlns="http://www.w3.org/2000/svg"><path fill-rule="evenodd" clip-rule="evenodd" d="M0.270011 3.46792C0.200316 3.53757 0.145029 3.62027 0.107307 3.7113C0.0695863 3.80232 0.0501709 3.89989 0.0501709 3.99842C0.0501709 4.09695 0.0695863 4.19452 0.107307 4.28554C0.145029 4.37657 0.200316 4.45927 0.270011 4.52892L3.47001 7.72892C3.53916 7.80058 3.62189 7.85776 3.71338 7.89711C3.80486 7.93646 3.90327 7.95719 4.00285 7.9581C4.10243 7.95902 4.2012 7.94009 4.29339 7.90242C4.38558 7.86475 4.46935 7.8091 4.5398 7.73872C4.61025 7.66833 4.66598 7.58462 4.70373 7.49246C4.74149 7.40031 4.76051 7.30156 4.75969 7.20197C4.75888 7.10239 4.73823 7.00397 4.69897 6.91245C4.65971 6.82092 4.60261 6.73814 4.53101 6.66892L2.61101 4.74892H12.001C12.1999 4.74892 12.3907 4.6699 12.5313 4.52925C12.672 4.3886 12.751 4.19783 12.751 3.99892C12.751 3.80001 12.672 3.60924 12.5313 3.46859C12.3907 3.32794 12.1999 3.24892 12.001 3.24892H2.61001L4.53001 1.32892C4.66249 1.18674 4.73461 0.998698 4.73119 0.804397C4.72776 0.610096 4.64905 0.42471 4.51163 0.287297C4.37422 0.149884 4.18883 0.071172 3.99453 0.0677438C3.80023 0.0643156 3.61219 0.136439 3.47001 0.268919L0.270011 3.46792ZM12.53 8.26792L15.73 11.4679C15.7997 11.5376 15.855 11.6203 15.8927 11.7113C15.9304 11.8023 15.9499 11.8999 15.9499 11.9984C15.9499 12.097 15.9304 12.1945 15.8927 12.2855C15.855 12.3766 15.7997 12.4593 15.73 12.5289L12.53 15.7289C12.4609 15.8006 12.3781 15.8578 12.2866 15.8971C12.1952 15.9365 12.0968 15.9572 11.9972 15.9581C11.8976 15.959 11.7988 15.9401 11.7066 15.9024C11.6144 15.8648 11.5307 15.8091 11.4602 15.7387C11.3898 15.6683 11.334 15.5846 11.2963 15.4925C11.2585 15.4003 11.2395 15.3016 11.2403 15.202C11.2411 15.1024 11.2618 15.004 11.3011 14.9124C11.3403 14.8209 11.3974 14.7381 11.469 14.6689L13.389 12.7489H3.99901C3.8001 12.7489 3.60933 12.6699 3.46868 12.5292C3.32803 12.3886 3.24901 12.1978 3.24901 11.9989C3.24901 11.8 3.32803 11.6092 3.46868 11.4686C3.60933 11.3279 3.8001 11.2489 3.99901 11.2489H13.389L11.469 9.32892C11.3365 9.18674 11.2644 8.9987 11.2678 8.8044C11.2713 8.6101 11.35 8.42471 11.4874 8.2873C11.6248 8.14988 11.8102 8.07117 12.0045 8.06774C12.1988 8.06432 12.3868 8.13644 12.529 8.26892L12.53 8.26792Z"></path></symbol><symbol id="icon-times" width="10" height="10" viewBox="0 0 10 10" xmlns="http://www.w3.org/2000/svg"><path d="M9.66671 1.27334L8.72671 0.333344L5.00004 4.06001L1.27337 0.333344L0.333374 1.27334L4.06004 5.00001L0.333374 8.72668L1.27337 9.66668L5.00004 5.94001L8.72671 9.66668L9.66671 8.72668L5.94004 5.00001L9.66671 1.27334Z"></path></symbol><symbol id="icon-user" width="14" height="16" viewBox="0 0 14 16" xmlns="http://www.w3.org/2000/svg"><path fill-rule="evenodd" clip-rule="evenodd" d="M4 4.99997C4 4.20432 4.31607 3.44126 4.87868 2.87865C5.44129 2.31604 6.20435 1.99997 7 1.99997C7.79565 1.99997 8.55871 2.31604 9.12132 2.87865C9.68393 3.44126 10 4.20432 10 4.99997C10 5.79562 9.68393 6.55868 9.12132 7.12129C8.55871 7.6839 7.79565 7.99997 7 7.99997C6.20435 7.99997 5.44129 7.6839 4.87868 7.12129C4.31607 6.55868 4 5.79562 4 4.99997ZM10.291 8.76397C11.057 8.09429 11.6004 7.20687 11.8488 6.2202C12.0971 5.23353 12.0385 4.19457 11.6809 3.24207C11.3232 2.28957 10.6835 1.46884 9.84707 0.889498C9.01067 0.310152 8.01744 -0.000244141 7 -0.000244141C5.98256 -0.000244141 4.98933 0.310152 4.15293 0.889498C3.31654 1.46884 2.6768 2.28957 2.31913 3.24207C1.96146 4.19457 1.90289 5.23353 2.15123 6.2202C2.39958 7.20687 2.94302 8.09429 3.709 8.76397C1.525 9.84497 0 11.974 0 14.5C0 14.7652 0.105357 15.0195 0.292893 15.2071C0.48043 15.3946 0.734784 15.5 1 15.5C1.26522 15.5 1.51957 15.3946 1.70711 15.2071C1.89464 15.0195 2 14.7652 2 14.5C2 12.095 4.155 9.99997 7 9.99997C9.845 9.99997 12 12.095 12 14.5C12 14.7652 12.1054 15.0195 12.2929 15.2071C12.4804 15.3946 12.7348 15.5 13 15.5C13.2652 15.5 13.5196 15.3946 13.7071 15.2071C13.8946 15.0195 14 14.7652 14 14.5C14 11.974 12.475 9.84497 10.291 8.76397Z"></path></symbol><symbol id="icon-sign-out" width="28" height="28" viewBox="0 0 24 24" xmlns="http://www.w3.org/2000/svg"><g data-name="Layer 2"><g data-name="log-out"><rect width="24" height="24" transform="rotate(90 12 12)" opacity="0"></rect><path d="M7 6a1 1 0 0 0 0-2H5a1 1 0 0 0-1 1v14a1 1 0 0 0 1 1h2a1 1 0 0 0 0-2H6V6z"></path><path d="M20.82 11.42l-2.82-4a1 1 0 0 0-1.39-.24 1 1 0 0 0-.24 1.4L18.09 11H10a1 1 0 0 0 0 2h8l-1.8 2.4a1 1 0 0 0 .2 1.4 1 1 0 0 0 .6.2 1 1 0 0 0 .8-.4l3-4a1 1 0 0 0 .02-1.18z"></path></g></g></symbol></svg>